<mxfile host="65bd71144e">
    <diagram id="T7UgyXWCfGzTBSYKE4VQ" name="第 1 页">
        <mxGraphModel dx="2153" dy="779" grid="1" gridSize="10" guides="1" tooltips="1" connect="1" arrows="1" fold="1" page="1" pageScale="1" pageWidth="827" pageHeight="1169" background="none" math="0" shadow="0">
            <root>
                <mxCell id="0"/>
                <mxCell id="1" parent="0"/>
                <mxCell id="Wb-KFh622kM0tp37ZMBH-2" value="credit" style="swimlane;rounded=0;strokeColor=#0080f0;" parent="1" vertex="1">
                    <mxGeometry x="-240" y="80" width="1190" height="620" as="geometry">
                        <mxRectangle x="-30" y="130" width="70" height="30" as="alternateBounds"/>
                    </mxGeometry>
                </mxCell>
                <mxCell id="Wb-KFh622kM0tp37ZMBH-19" value="" style="edgeStyle=orthogonalEdgeStyle;rounded=0;orthogonalLoop=1;jettySize=auto;html=1;" parent="Wb-KFh622kM0tp37ZMBH-2" source="Wb-KFh622kM0tp37ZMBH-3" target="Wb-KFh622kM0tp37ZMBH-18" edge="1">
                    <mxGeometry relative="1" as="geometry"/>
                </mxCell>
                <mxCell id="Wb-KFh622kM0tp37ZMBH-9" value="" style="group;rounded=0;" parent="Wb-KFh622kM0tp37ZMBH-2" vertex="1" connectable="0">
                    <mxGeometry x="900" y="80" width="120" height="70" as="geometry"/>
                </mxCell>
                <mxCell id="Wb-KFh622kM0tp37ZMBH-10" value="" style="html=1;verticalLabelPosition=bottom;align=center;labelBackgroundColor=#ffffff;verticalAlign=top;strokeWidth=2;strokeColor=#0080F0;shadow=0;dashed=0;shape=mxgraph.ios7.icons.folder;rounded=0;" parent="Wb-KFh622kM0tp37ZMBH-9" vertex="1">
                    <mxGeometry width="120" height="70" as="geometry"/>
                </mxCell>
                <mxCell id="Wb-KFh622kM0tp37ZMBH-11" value="models" style="text;html=1;strokeColor=none;fillColor=none;align=center;verticalAlign=middle;whiteSpace=wrap;rounded=0;" parent="Wb-KFh622kM0tp37ZMBH-9" vertex="1">
                    <mxGeometry x="30" y="20" width="60" height="30" as="geometry"/>
                </mxCell>
                <mxCell id="Wb-KFh622kM0tp37ZMBH-6" value="" style="group;rounded=0;" parent="Wb-KFh622kM0tp37ZMBH-2" vertex="1" connectable="0">
                    <mxGeometry x="565" y="80" width="120" height="70" as="geometry"/>
                </mxCell>
                <mxCell id="Wb-KFh622kM0tp37ZMBH-7" value="" style="html=1;verticalLabelPosition=bottom;align=center;labelBackgroundColor=#ffffff;verticalAlign=top;strokeWidth=2;strokeColor=#0080F0;shadow=0;dashed=0;shape=mxgraph.ios7.icons.folder;rounded=0;" parent="Wb-KFh622kM0tp37ZMBH-6" vertex="1">
                    <mxGeometry width="120" height="70" as="geometry"/>
                </mxCell>
                <mxCell id="Wb-KFh622kM0tp37ZMBH-8" value="encoders" style="text;html=1;strokeColor=none;fillColor=none;align=center;verticalAlign=middle;whiteSpace=wrap;rounded=0;" parent="Wb-KFh622kM0tp37ZMBH-6" vertex="1">
                    <mxGeometry x="30" y="20" width="60" height="30" as="geometry"/>
                </mxCell>
                <mxCell id="Wb-KFh622kM0tp37ZMBH-5" value="" style="group;rounded=0;" parent="Wb-KFh622kM0tp37ZMBH-2" vertex="1" connectable="0">
                    <mxGeometry x="284" y="80" width="120" height="70" as="geometry"/>
                </mxCell>
                <mxCell id="Wb-KFh622kM0tp37ZMBH-3" value="" style="html=1;verticalLabelPosition=bottom;align=center;labelBackgroundColor=#ffffff;verticalAlign=top;strokeWidth=2;strokeColor=#0080F0;shadow=0;dashed=0;shape=mxgraph.ios7.icons.folder;rounded=0;" parent="Wb-KFh622kM0tp37ZMBH-5" vertex="1">
                    <mxGeometry width="120" height="70" as="geometry"/>
                </mxCell>
                <mxCell id="Wb-KFh622kM0tp37ZMBH-4" value="datasets" style="text;html=1;strokeColor=none;fillColor=none;align=center;verticalAlign=middle;whiteSpace=wrap;rounded=0;" parent="Wb-KFh622kM0tp37ZMBH-5" vertex="1">
                    <mxGeometry x="30" y="20" width="60" height="30" as="geometry"/>
                </mxCell>
                <mxCell id="Wb-KFh622kM0tp37ZMBH-23" value="" style="group;rounded=0;" parent="Wb-KFh622kM0tp37ZMBH-2" vertex="1" connectable="0">
                    <mxGeometry x="204" y="200" width="106" height="60" as="geometry"/>
                </mxCell>
                <mxCell id="Wb-KFh622kM0tp37ZMBH-18" value="" style="html=1;verticalLabelPosition=bottom;align=center;labelBackgroundColor=#ffffff;verticalAlign=top;strokeWidth=2;strokeColor=#0080F0;shadow=0;dashed=0;shape=mxgraph.ios7.icons.folder;rounded=0;" parent="Wb-KFh622kM0tp37ZMBH-23" vertex="1">
                    <mxGeometry width="106" height="60" as="geometry"/>
                </mxCell>
                <mxCell id="Wb-KFh622kM0tp37ZMBH-22" value="data_name" style="text;html=1;strokeColor=none;fillColor=none;align=center;verticalAlign=middle;whiteSpace=wrap;rounded=0;" parent="Wb-KFh622kM0tp37ZMBH-23" vertex="1">
                    <mxGeometry x="23" y="15" width="60" height="30" as="geometry"/>
                </mxCell>
                <mxCell id="Wb-KFh622kM0tp37ZMBH-24" value="&lt;span style=&quot;background-color: rgb(51, 51, 51);&quot;&gt;download_data.py&lt;/span&gt;" style="whiteSpace=wrap;html=1;verticalAlign=top;strokeColor=#0080F0;labelBackgroundColor=#ffffff;strokeWidth=2;shadow=0;dashed=0;rounded=0;" parent="Wb-KFh622kM0tp37ZMBH-2" vertex="1">
                    <mxGeometry x="189" y="280" width="129" height="30" as="geometry"/>
                </mxCell>
                <mxCell id="Wb-KFh622kM0tp37ZMBH-29" value="&lt;span style=&quot;background-color: rgb(26, 26, 26);&quot;&gt;transport_to_mysql.py&lt;/span&gt;" style="whiteSpace=wrap;html=1;verticalAlign=top;labelBackgroundColor=#ffffff;strokeWidth=2;shadow=0;dashed=0;rounded=0;labelBorderColor=#0000FF;" parent="Wb-KFh622kM0tp37ZMBH-2" vertex="1">
                    <mxGeometry x="189" y="320" width="129" height="30" as="geometry"/>
                </mxCell>
                <mxCell id="Wb-KFh622kM0tp37ZMBH-30" value="&lt;span style=&quot;background-color: rgb(26, 26, 26);&quot;&gt;config.py&lt;/span&gt;" style="whiteSpace=wrap;html=1;verticalAlign=top;strokeColor=#0080F0;labelBackgroundColor=#ffffff;strokeWidth=2;shadow=0;dashed=0;rounded=0;" parent="Wb-KFh622kM0tp37ZMBH-2" vertex="1">
                    <mxGeometry x="189" y="360" width="129" height="30" as="geometry"/>
                </mxCell>
                <mxCell id="Wb-KFh622kM0tp37ZMBH-33" value="data format: .csv, .xls,.xlsx,.json, ...&lt;br&gt;func:1. download data file from url" style="text;html=1;strokeColor=none;fillColor=none;align=left;verticalAlign=middle;whiteSpace=wrap;rounded=0;" parent="Wb-KFh622kM0tp37ZMBH-2" vertex="1">
                    <mxGeometry x="350" y="275" width="200" height="50" as="geometry"/>
                </mxCell>
                <mxCell id="Wb-KFh622kM0tp37ZMBH-34" value="" style="group;rounded=0;" parent="Wb-KFh622kM0tp37ZMBH-2" vertex="1" connectable="0">
                    <mxGeometry x="70" y="270" width="106" height="60" as="geometry"/>
                </mxCell>
                <mxCell id="Wb-KFh622kM0tp37ZMBH-35" value="" style="html=1;verticalLabelPosition=bottom;align=center;labelBackgroundColor=#ffffff;verticalAlign=top;strokeWidth=2;strokeColor=#0080F0;shadow=0;dashed=0;shape=mxgraph.ios7.icons.folder;rounded=0;" parent="Wb-KFh622kM0tp37ZMBH-34" vertex="1">
                    <mxGeometry width="106" height="60" as="geometry"/>
                </mxCell>
                <mxCell id="Wb-KFh622kM0tp37ZMBH-36" value="resource" style="text;html=1;strokeColor=none;fillColor=none;align=center;verticalAlign=middle;whiteSpace=wrap;rounded=0;" parent="Wb-KFh622kM0tp37ZMBH-34" vertex="1">
                    <mxGeometry x="23" y="15" width="60" height="30" as="geometry"/>
                </mxCell>
                <mxCell id="Wb-KFh622kM0tp37ZMBH-38" value="" style="edgeStyle=orthogonalEdgeStyle;rounded=0;orthogonalLoop=1;jettySize=auto;html=1;" parent="Wb-KFh622kM0tp37ZMBH-2" source="Wb-KFh622kM0tp37ZMBH-18" edge="1">
                    <mxGeometry relative="1" as="geometry">
                        <mxPoint x="120" y="270" as="targetPoint"/>
                    </mxGeometry>
                </mxCell>
            </root>
        </mxGraphModel>
    </diagram>
</mxfile>